<svg xmlns="http://www.w3.org/2000/svg" viewBox="0 0 320 150">
  <defs>
    <linearGradient id="gum" x1="0" x2="0" y1="0" y2="1">
      <stop offset="0" stop-color="#783936"/>
      <stop offset=".5" stop-color="#aa605c"/>
      <stop offset="1" stop-color="#271313"/>
    </linearGradient>
    <linearGradient id="tooth" x1="0" x2="0" y1="0" y2="1">
      <stop offset="0" stop-color="#fff3de"/>
      <stop offset=".58" stop-color="#c9aa72"/>
      <stop offset="1" stop-color="#765839"/>
    </linearGradient>
  </defs>
  <rect width="320" height="150" fill="#0e0808"/>
  <rect y="0" width="320" height="54" fill="url(#gum)"/>
  <g transform="translate(16 40)">
    <path d="M0 15c55-20 102 14 150 7 54-8 94-23 138-6v70H0z" fill="#231111" opacity=".74"/>
    <g fill="url(#tooth)" stroke="#55371f" stroke-width="2">
      <rect x="0" y="14" width="25" height="52" rx="9"/>
      <rect x="29" y="6" width="29" height="64" rx="11"/>
      <rect x="62" y="-2" width="34" height="78" rx="13"/>
      <rect x="101" y="-7" width="38" height="88" rx="14"/>
      <rect x="144" y="-4" width="36" height="82" rx="14"/>
      <rect x="184" y="5" width="33" height="66" rx="12"/>
      <rect x="221" y="12" width="30" height="55" rx="10"/>
      <rect x="254" y="16" width="27" height="48" rx="10"/>
    </g>
  </g>
</svg>
