<svg xmlns="http://www.w3.org/2000/svg" viewBox="0 0 320 150">
  <defs>
    <linearGradient id="gum" x1="0" x2="0" y1="0" y2="1">
      <stop offset="0" stop-color="#7e3f3a"/>
      <stop offset=".55" stop-color="#b96b61"/>
      <stop offset="1" stop-color="#4b1f1e"/>
    </linearGradient>
    <linearGradient id="tooth" x1="0" x2="0" y1="0" y2="1">
      <stop offset="0" stop-color="#fff7e8"/>
      <stop offset=".6" stop-color="#d5b985"/>
      <stop offset="1" stop-color="#8e7046"/>
    </linearGradient>
  </defs>
  <rect width="320" height="150" fill="#120b0b"/>
  <rect y="0" width="320" height="58" fill="url(#gum)"/>
  <g transform="translate(20 42)">
    <path d="M0 0c45 18 90 22 140 10s96-11 140 4v70H0z" fill="#281413" opacity=".65"/>
    <g fill="url(#tooth)" stroke="#5c3d26" stroke-width="2">
      <rect x="8" y="0" width="31" height="76" rx="12"/>
      <rect x="42" y="-6" width="34" height="84" rx="13"/>
      <rect x="79" y="-8" width="36" height="88" rx="14"/>
      <rect x="118" y="-6" width="34" height="84" rx="13"/>
      <rect x="155" y="-3" width="34" height="80" rx="13"/>
      <rect x="192" y="0" width="31" height="75" rx="12"/>
      <rect x="226" y="6" width="28" height="65" rx="11"/>
    </g>
  </g>
</svg>
