<svg xmlns="http://www.w3.org/2000/svg" viewBox="0 0 320 150">
  <defs>
    <linearGradient id="gum" x1="0" x2="0" y1="0" y2="1">
      <stop offset="0" stop-color="#6f312f"/>
      <stop offset=".48" stop-color="#c47b6d"/>
      <stop offset="1" stop-color="#351819"/>
    </linearGradient>
    <linearGradient id="tooth" x1="0" x2="0" y1="0" y2="1">
      <stop offset="0" stop-color="#fffaf0"/>
      <stop offset=".62" stop-color="#d2b77e"/>
      <stop offset="1" stop-color="#80633d"/>
    </linearGradient>
  </defs>
  <rect width="320" height="150" fill="#110909"/>
  <rect y="0" width="320" height="62" fill="url(#gum)"/>
  <g transform="translate(26 38)">
    <path d="M0 14c38-6 76 8 118 8 48 0 91-17 148-3v69H0z" fill="#2a1112" opacity=".7"/>
    <g fill="url(#tooth)" stroke="#5b3920" stroke-width="2">
      <rect x="2" y="10" width="26" height="56" rx="10"/>
      <rect x="32" y="0" width="35" height="77" rx="13"/>
      <rect x="70" y="-5" width="38" height="86" rx="14"/>
      <rect x="111" y="-8" width="38" height="91" rx="14"/>
      <rect x="153" y="-4" width="36" height="83" rx="14"/>
      <rect x="193" y="2" width="33" height="72" rx="12"/>
      <rect x="229" y="12" width="28" height="56" rx="10"/>
    </g>
  </g>
</svg>
